<?xml version="1.0" encoding="UTF-8"?>
<svg id="Layer_2" data-name="Layer 2" xmlns="http://www.w3.org/2000/svg" xmlns:xlink="http://www.w3.org/1999/xlink" viewBox="0 0 234.32 336.49">
  <defs>
    <style>
      .cls-1 {
        fill: #8e95ab;
      }

      .cls-1, .cls-2, .cls-3, .cls-4, .cls-5, .cls-6, .cls-7, .cls-8, .cls-9, .cls-10, .cls-11 {
        stroke-miterlimit: 10;
      }

      .cls-1, .cls-3, .cls-4, .cls-7, .cls-8, .cls-9, .cls-10, .cls-11 {
        stroke: #181a21;
      }

      .cls-1, .cls-8 {
        stroke-width: .75px;
      }

      .cls-12 {
        clip-path: url(#clippath-6);
      }

      .cls-13 {
        clip-path: url(#clippath-7);
      }

      .cls-2, .cls-14, .cls-6, .cls-15 {
        stroke: #000;
      }

      .cls-2, .cls-14, .cls-8, .cls-9 {
        fill: none;
      }

      .cls-16 {
        fill: url(#linear-gradient-2);
      }

      .cls-3 {
        fill: #787c86;
      }

      .cls-17 {
        fill: #e6fdff;
      }

      .cls-18 {
        clip-path: url(#clippath-9);
      }

      .cls-4, .cls-19 {
        fill: #e9ebf3;
      }

      .cls-20 {
        clip-path: url(#clippath-10);
      }

      .cls-21 {
        fill: #181a21;
      }

      .cls-22 {
        clip-path: url(#clippath-11);
      }

      .cls-23 {
        fill: url(#radial-gradient);
      }

      .cls-24 {
        fill: #7f8599;
      }

      .cls-25 {
        fill: url(#linear-gradient-3);
      }

      .cls-26 {
        clip-path: url(#clippath-1);
      }

      .cls-27, .cls-5, .cls-11 {
        fill: #27e8ff;
      }

      .cls-14, .cls-15 {
        stroke-linejoin: round;
        stroke-width: 5px;
      }

      .cls-28 {
        clip-path: url(#clippath-5);
      }

      .cls-5 {
        stroke: #fff;
      }

      .cls-29 {
        clip-path: url(#clippath-8);
      }

      .cls-6, .cls-30 {
        fill: #343e4c;
      }

      .cls-31 {
        clip-path: url(#clippath-3);
      }

      .cls-32 {
        clip-path: url(#clippath-12);
      }

      .cls-7, .cls-33 {
        fill: #c1cee0;
      }

      .cls-34 {
        fill: #7488ac;
      }

      .cls-35 {
        fill: #616675;
      }

      .cls-36, .cls-10 {
        fill: #b9bdcd;
      }

      .cls-37 {
        clip-path: url(#clippath-2);
      }

      .cls-38 {
        fill: url(#linear-gradient);
      }

      .cls-39 {
        clip-path: url(#clippath);
      }
    </style>
    <clipPath id="clippath">
      <polygon class="cls-15" points="58.15 155.94 47.55 155.89 13.01 223.35 31.76 208.32 58.15 155.94"/>
    </clipPath>
    <clipPath id="clippath-1">
      <polygon class="cls-15" points="177.17 155.94 187.77 155.89 222.31 223.35 203.56 208.32 177.17 155.94"/>
    </clipPath>
    <clipPath id="clippath-2">
      <path class="cls-15" d="M136.82,138.71c15.62.86,33.62-1.14,45.62,12.86,7,9,6,20,8,31,1,10,1,21-3,31-7,21-15,42-31,59-6,6-14,10-23,12-5,1-8.94-1.62-12.74-1.22-4.13.44-7.13,0-7.13,0-3.74-.78-7.74,2.22-12.74,1.22-9-2-17-6-23-12-16-17-24-38-31-59-4-10-4-21-3-31,2-11,1-22,8-31,12-14,30-12,45.62-12.86h39.37Z"/>
    </clipPath>
    <clipPath id="clippath-3">
      <path class="cls-15" d="M180.18,158.87c10.39-3.19,14.72-15.95,14.32-26.82l-1.03-27.9c0-1.5-.14-3.16-.38-4.93l-.12-1.55c-2.2-13.93-6.98-26.58-11.3-35.87-7.16-15.43-20.52-27.23-36.88-31.9-20.27-5.78-40.05-3.36-40.05-3.36,0,0-6.25-.09-11.95-2.57-4.98-2.17-26.67-17.54-32.07-21.38-.37-.26-.85.11-.69.53l9.4,24.71-15.13-2.96c-.36-.07-.64.3-.48.62l9.6,20.93,3.44-3.15c-7.26,6.54-12.37,14.46-16.28,23.63-.45,1.28-.87,2.55-1.29,3.81-3.05,6.04-6.01,16.85-9.01,35.54l-.54,27.82c-.02,5.14.4,11.2,2.93,15.68,3.75,6.63,15.57,12.93,24.58,14.2,3.4.48,6.74,1.25,10.06,2.11,7.04,1.83,18.17,4.51,27.37,5.78,4.37.6,8.76.25,13.14-.24,18.82-2.11,48.87-8.61,62.38-12.76Z"/>
    </clipPath>
    <clipPath id="clippath-5">
      <polygon class="cls-10" points="58.72 155.72 48.12 155.67 13.58 223.13 32.33 208.1 58.72 155.72"/>
    </clipPath>
    <clipPath id="clippath-6">
      <polygon class="cls-10" points="177.74 155.72 188.34 155.67 222.88 223.13 204.13 208.1 177.74 155.72"/>
    </clipPath>
    <clipPath id="clippath-7">
      <path class="cls-4" d="M136.82,138.71c15.62.86,33.62-1.14,45.62,12.86,7,9,6,20,8,31,1,10,1,21-3,31-7,21-15,42-31,59-6,6-14,10-23,12-5,1-8.94-1.62-12.74-1.22-4.13.44-7.13,0-7.13,0-3.74-.78-7.74,2.22-12.74,1.22-9-2-17-6-23-12-16-17-24-38-31-59-4-10-4-21-3-31,2-11,1-22,8-31,12-14,30-12,45.62-12.86h39.37Z"/>
    </clipPath>
    <linearGradient id="linear-gradient" x1="116.41" y1="195.18" x2="118.58" y2="71.48" gradientUnits="userSpaceOnUse">
      <stop offset="0" stop-color="#f4f5f8"/>
      <stop offset="1" stop-color="#bbc6d5"/>
    </linearGradient>
    <clipPath id="clippath-8">
      <path class="cls-11" d="M180.18,158.87c10.39-3.19,14.72-15.95,14.32-26.82l-1.03-27.9c0-1.5-.14-3.16-.38-4.93l-.12-1.55c-2.2-13.93-6.98-26.58-11.3-35.87-7.16-15.43-20.52-27.23-36.88-31.9-20.27-5.78-40.05-3.36-40.05-3.36,0,0-6.25-.09-11.95-2.57-4.98-2.17-26.67-17.54-32.07-21.38-.37-.26-.85.11-.69.53l9.4,24.71-15.13-2.96c-.36-.07-.64.3-.48.62l9.6,20.93,3.44-3.15c-7.26,6.54-12.37,14.46-16.28,23.63-.45,1.28-.87,2.55-1.29,3.81-3.05,6.04-6.01,16.85-9.01,35.54l-.54,27.82c-.02,5.14.4,11.2,2.93,15.68,3.75,6.63,15.57,12.93,24.58,14.2,3.4.48,6.74,1.25,10.06,2.11,7.04,1.83,18.17,4.51,27.37,5.78,4.37.6,8.76.25,13.14-.24,18.82-2.11,48.87-8.61,62.38-12.76Z"/>
    </clipPath>
    <clipPath id="clippath-9">
      <path class="cls-19" d="M191.45,91.35c-.05-.33-.09-.66-.13-.99-3.55-27.69-20.77-44.34-42.49-44.34-12.94,0-24.42,7.03-31.66,17.88-7.25-10.86-18.73-17.88-31.66-17.88-21.72,0-38.94,16.65-42.49,44.34-.04.33-.08.66-.13.99-.25,1.58-1.58,12.3-1.75,21.87-.13,7.22,8.57,32.09,27.13,46.35,15.81,12.15,41.61,16.69,48.88,17.76h0s.02,0,.03,0c0,0,.02,0,.03,0h0c7.28-1.09,33.07-5.62,48.88-17.77,18.56-14.25,27.26-39.13,27.13-46.35-.18-9.57-1.5-20.28-1.75-21.87Z"/>
    </clipPath>
    <linearGradient id="linear-gradient-2" x1="90.47" y1="-24.75" x2="203.85" y2="-24.75" gradientTransform="translate(144.55 -59.98) rotate(90) scale(1.17 1)" gradientUnits="userSpaceOnUse">
      <stop offset=".46" stop-color="#e9ebf3"/>
      <stop offset=".52" stop-color="#e4e7f0"/>
      <stop offset=".58" stop-color="#d8dce7"/>
      <stop offset=".65" stop-color="#c3cbd8"/>
      <stop offset=".71" stop-color="#a6b2c4"/>
      <stop offset=".75" stop-color="#93a2b7"/>
    </linearGradient>
    <linearGradient id="linear-gradient-3" x1="-268.89" y1="182.78" x2="-155.51" y2="182.78" gradientTransform="translate(-182.51 -71.09) rotate(-180) scale(1.17 -1)" gradientUnits="userSpaceOnUse">
      <stop offset=".39" stop-color="#e9ebf3"/>
      <stop offset=".46" stop-color="#e4e7f0"/>
      <stop offset=".54" stop-color="#d8dce7"/>
      <stop offset=".62" stop-color="#c3cbd8"/>
      <stop offset=".7" stop-color="#a6b2c4"/>
      <stop offset=".75" stop-color="#93a2b7"/>
    </linearGradient>
    <radialGradient id="radial-gradient" cx="114.92" cy="177.01" fx="114.92" fy="177.01" r="122.52" gradientUnits="userSpaceOnUse">
      <stop offset="0" stop-color="#f4f5f8"/>
      <stop offset=".71" stop-color="#bbc6d5"/>
    </radialGradient>
    <clipPath id="clippath-10">
      <polygon class="cls-6" points="101.44 130.94 116.13 120.06 132.04 130.91 116.54 131.8 101.44 130.94"/>
    </clipPath>
    <clipPath id="clippath-11">
      <path class="cls-7" d="M99.46,102.15c6.57,26.55-9.38,28-20.76,28.48-13.09.56-25.17-7.79-26.62-22.28-1.39-13.9,3.96-28.08,17.03-28.97,12.37-.84,27.22,10.12,30.34,22.76Z"/>
    </clipPath>
    <clipPath id="clippath-12">
      <path class="cls-7" d="M134.66,102.15c-6.57,26.55,9.38,28,20.76,28.48,13.09.56,25.17-7.79,26.62-22.28,1.39-13.9-3.96-28.08-17.03-28.97-12.37-.84-27.22,10.12-30.34,22.76Z"/>
    </clipPath>
  </defs>
  <g id="Back_Outline" data-name="Back Outline">
    <g>
      <g>
        <g>
          <polygon points="58.15 155.94 47.55 155.89 13.01 223.35 31.76 208.32 58.15 155.94"/>
          <g class="cls-39">
            <path class="cls-15" d="M57.18,150.41l-35.86,71.45,29.52-2.48s13.1-29.93,14.62-36.69-2.21-30.34-2.21-30.34l-6.07-1.93Z"/>
          </g>
          <polygon class="cls-14" points="58.15 155.94 47.55 155.89 13.01 223.35 31.76 208.32 58.15 155.94"/>
        </g>
        <path class="cls-15" d="M65.9,288.03c-36-35.96-36.38-72.68-36.38-72.68,0,0,13.91-22.7,14.19-23.18,0,0,16.43,49.41,39.17,66.85l-16.98,29Z"/>
      </g>
      <g>
        <g>
          <polygon points="177.17 155.94 187.77 155.89 222.31 223.35 203.56 208.32 177.17 155.94"/>
          <g class="cls-26">
            <polyline class="cls-15" points="175.27 152.81 180.2 150.72 211.52 222.27"/>
          </g>
          <polygon class="cls-14" points="177.17 155.94 187.77 155.89 222.31 223.35 203.56 208.32 177.17 155.94"/>
        </g>
        <path class="cls-15" d="M169.29,288.69c36.06-36.25,36.49-73.21,36.49-73.21,0,0-13.88-22.83-14.16-23.31,0,0-16.5,49.76-39.27,67.35l16.94,29.17Z"/>
      </g>
      <path class="cls-15" d="M82.35,285.35s-7.36,18.8-9.01,21.61c-1.66,2.8-6.94,6.34-8.09,6.53s-7.31.09-7.91,2.02c-.6,1.93-4.37,5.52-5.89,5.52s-6.62,2.85-7.63,2.76-4.83,4.32-2.3,6.99c0,0,1.33-4.69,3.59-3.77,0,0,3.54,1.06,5.06,0s3.86-2.48,4.87-2.94,9.2-.46,9.2-.46l1.38-.28s-.64,2.57-.46,4.69c.18,2.11,1.56,3.17,1.66,3.59s-.83,1.43.37,2.39c0,0,.28-.87,1.29-2.02,0,0,.87-3.68,1.75-4.51s3.86-3.95,4.87-4.87c1.01-.92,1.56-1.43,3.68-1.01s4.05.18,4.51.83,1.29,2.71,2.11,2.57,3.72-.46,4.51.37,3.13,3.54,1.75,4.78c0,0,2.44-.83,3.4-3.13,0,0,.37-3.72-2.67-5.33-3.03-1.61-7.03-4.23-7.36-4.69s.14-4.69-.92-5.24-3.03-1.98-3.59-2.85,6.85-19.26,6.9-19.49-.83-5.24-.83-5.24l-4.23,1.2Z"/>
      <path class="cls-15" d="M153.61,285.35s7.36,18.8,9.01,21.61,6.94,6.34,8.09,6.53,7.31.09,7.91,2.02c.6,1.93,4.37,5.52,5.89,5.52s6.62,2.85,7.63,2.76,4.83,4.32,2.3,6.99c0,0-1.33-4.69-3.59-3.77,0,0-3.54,1.06-5.06,0-1.52-1.06-3.86-2.48-4.87-2.94s-9.2-.46-9.2-.46l-1.38-.28s.64,2.57.46,4.69-1.56,3.17-1.66,3.59.83,1.43-.37,2.39c0,0-.28-.87-1.29-2.02,0,0-.87-3.68-1.75-4.51s-3.86-3.95-4.87-4.87c-1.01-.92-1.56-1.43-3.68-1.01s-4.05.18-4.51.83-1.29,2.71-2.11,2.57-3.72-.46-4.51.37-3.13,3.54-1.75,4.78c0,0-2.44-.83-3.4-3.13,0,0-.37-3.72,2.67-5.33s7.03-4.23,7.36-4.69-.14-4.69.92-5.24,3.03-1.98,3.59-2.85-6.85-19.26-6.9-19.49.83-5.24.83-5.24l4.23,1.2Z"/>
      <path class="cls-15" d="M102.76,280.74c-.06-.09-.12-.18-.18-.28-.52-.78-.77-1.54-.83-2.27-.42-1.34-.38-2.82.41-4.05.21-.36.45-.7.71-1.02-.26-.81-.82-1.64-1.18-2.39-.97-2-1.9-3.96-2.62-6.05-5.53-3.27-13.4.89-19.03,1.62-.94.12-1.75-.06-2.43-.44-.35.67-.67,1.36-.95,2.08-3.29,8.79.61,18.36,8.69,21.39,6.98,2.61,14.79-.52,18.92-7.08-.59-.4-1.12-.91-1.52-1.51Z"/>
      <path class="cls-15" d="M136.02,280.74c.06-.09.12-.18.18-.28.52-.78.77-1.54.83-2.27.42-1.34.38-2.82-.41-4.05-.21-.36-.45-.7-.71-1.02.26-.81.82-1.64,1.18-2.39.97-2,1.9-3.96,2.62-6.05,5.53-3.27,13.4.89,19.03,1.62.94.12,1.75-.06,2.43-.44.35.67.67,1.36.95,2.08,3.29,8.79-.61,18.36-8.69,21.39-6.98,2.61-14.79-.52-18.92-7.08.59-.4,1.12-.91,1.52-1.51Z"/>
      <g>
        <path d="M136.82,138.71c15.62.86,33.62-1.14,45.62,12.86,7,9,6,20,8,31,1,10,1,21-3,31-7,21-15,42-31,59-6,6-14,10-23,12-5,1-8.94-1.62-12.74-1.22-4.13.44-7.13,0-7.13,0-3.74-.78-7.74,2.22-12.74,1.22-9-2-17-6-23-12-16-17-24-38-31-59-4-10-4-21-3-31,2-11,1-22,8-31,12-14,30-12,45.62-12.86h39.37Z"/>
        <g class="cls-37">
          <ellipse class="cls-15" cx="116.92" cy="166" rx="73.92" ry="74.48"/>
        </g>
        <path class="cls-14" d="M136.82,138.71c15.62.86,33.62-1.14,45.62,12.86,7,9,6,20,8,31,1,10,1,21-3,31-7,21-15,42-31,59-6,6-14,10-23,12-5,1-8.94-1.62-12.74-1.22-4.13.44-7.13,0-7.13,0-3.74-.78-7.74,2.22-12.74,1.22-9-2-17-6-23-12-16-17-24-38-31-59-4-10-4-21-3-31,2-11,1-22,8-31,12-14,30-12,45.62-12.86h39.37Z"/>
      </g>
      <g>
        <path d="M180.18,158.87c10.39-3.19,14.72-15.95,14.32-26.82l-1.03-27.9c0-1.5-.14-3.16-.38-4.93l-.12-1.55c-2.2-13.93-6.98-26.58-11.3-35.87-7.16-15.43-20.52-27.23-36.88-31.9-20.27-5.78-40.05-3.36-40.05-3.36,0,0-6.25-.09-11.95-2.57-4.98-2.17-26.67-17.54-32.07-21.38-.37-.26-.85.11-.69.53l9.4,24.71-15.13-2.96c-.36-.07-.64.3-.48.62l9.6,20.93,3.44-3.15c-7.26,6.54-12.37,14.46-16.28,23.63-.45,1.28-.87,2.55-1.29,3.81-3.05,6.04-6.01,16.85-9.01,35.54l-.54,27.82c-.02,5.14.4,11.2,2.93,15.68,3.75,6.63,15.57,12.93,24.58,14.2,3.4.48,6.74,1.25,10.06,2.11,7.04,1.83,18.17,4.51,27.37,5.78,4.37.6,8.76.25,13.14-.24,18.82-2.11,48.87-8.61,62.38-12.76Z"/>
        <g class="cls-31">
          <g>
            <path d="M191.45,91.35c-.05-.33-.09-.66-.13-.99-3.55-27.69-20.77-44.34-42.49-44.34-12.94,0-24.42,7.03-31.66,17.88-7.25-10.86-18.73-17.88-31.66-17.88-21.72,0-38.94,16.65-42.49,44.34-.04.33-.08.66-.13.99-.25,1.58-1.58,12.3-1.75,21.87-.13,7.22,8.57,32.09,27.13,46.35,15.81,12.15,41.61,16.69,48.88,17.76h0s.02,0,.03,0c0,0,.02,0,.03,0h0c7.28-1.09,33.07-5.62,48.88-17.77,18.56-14.25,27.26-39.13,27.13-46.35-.18-9.57-1.5-20.28-1.75-21.87Z"/>
            <path class="cls-14" d="M191.45,91.35c-.05-.33-.09-.66-.13-.99-3.55-27.69-20.77-44.34-42.49-44.34-12.94,0-24.42,7.03-31.66,17.88-7.25-10.86-18.73-17.88-31.66-17.88-21.72,0-38.94,16.65-42.49,44.34-.04.33-.08.66-.13.99-.25,1.58-1.58,12.3-1.75,21.87-.13,7.22,8.57,32.09,27.13,46.35,15.81,12.15,41.61,16.69,48.88,17.76h0s.02,0,.03,0c0,0,.02,0,.03,0h0c7.28-1.09,33.07-5.62,48.88-17.77,18.56-14.25,27.26-39.13,27.13-46.35-.18-9.57-1.5-20.28-1.75-21.87Z"/>
          </g>
        </g>
        <path class="cls-14" d="M180.18,158.87c10.39-3.19,14.72-15.95,14.32-26.82l-1.03-27.9c0-1.5-.14-3.16-.38-4.93l-.12-1.55c-2.2-13.93-6.98-26.58-11.3-35.87-7.16-15.43-20.52-27.23-36.88-31.9-20.27-5.78-40.05-3.36-40.05-3.36,0,0-6.25-.09-11.95-2.57-4.98-2.17-26.67-17.54-32.07-21.38-.37-.26-.85.11-.69.53l9.4,24.71-15.13-2.96c-.36-.07-.64.3-.48.62l9.6,20.93,3.44-3.15c-7.26,6.54-12.37,14.46-16.28,23.63-.45,1.28-.87,2.55-1.29,3.81-3.05,6.04-6.01,16.85-9.01,35.54l-.54,27.82c-.02,5.14.4,11.2,2.93,15.68,3.75,6.63,15.57,12.93,24.58,14.2,3.4.48,6.74,1.25,10.06,2.11,7.04,1.83,18.17,4.51,27.37,5.78,4.37.6,8.76.25,13.14-.24,18.82-2.11,48.87-8.61,62.38-12.76Z"/>
      </g>
      <rect class="cls-15" x="89.5" y="247.47" width="3.57" height="19.31" rx="1.27" ry="1.27" transform="translate(-155.08 139.86) rotate(-45)"/>
      <rect class="cls-15" x="136.77" y="247.47" width="3.57" height="19.31" rx="1.27" ry="1.27" transform="translate(54.7 536.91) rotate(-135)"/>
    </g>
  </g>
  <g id="Body">
    <g>
      <g>
        <g>
          <polygon class="cls-36" points="58.72 155.72 48.12 155.67 13.58 223.13 32.33 208.1 58.72 155.72"/>
          <g class="cls-28">
            <path class="cls-24" d="M57.75,150.19l-35.86,71.45,29.52-2.48s13.1-29.93,14.62-36.69-2.21-30.34-2.21-30.34l-6.07-1.93Z"/>
          </g>
          <polygon class="cls-9" points="58.72 155.72 48.12 155.67 13.58 223.13 32.33 208.1 58.72 155.72"/>
        </g>
        <path class="cls-5" d="M83.45,258.81c-22.75-17.44-39.17-66.85-39.17-66.85-.28.47-14.19,23.18-14.19,23.18,0,0,.16,13.46,8.25,32.05v28.59h8.28v-12.85c1.2,1.93,2.48,3.89,3.86,5.86v11.4h2.76v-7.6c3.77,5.02,8.14,10.13,13.24,15.23l16.98-29Z"/>
      </g>
      <path class="cls-3" d="M82.35,285.35s-7.36,18.8-9.01,21.61c-1.66,2.8-6.94,6.34-8.09,6.53s-7.31.09-7.91,2.02c-.6,1.93-4.37,5.52-5.89,5.52s-6.62,2.85-7.63,2.76-4.83,4.32-2.3,6.99c0,0,1.33-4.69,3.59-3.77,0,0,3.54,1.06,5.06,0s3.86-2.48,4.87-2.94,9.2-.46,9.2-.46l1.38-.28s-.64,2.57-.46,4.69c.18,2.11,1.56,3.17,1.66,3.59s-.83,1.43.37,2.39c0,0,.28-.87,1.29-2.02,0,0,.87-3.68,1.75-4.51s3.86-3.95,4.87-4.87c1.01-.92,1.56-1.43,3.68-1.01s4.05.18,4.51.83,1.29,2.71,2.11,2.57,3.72-.46,4.51.37,3.13,3.54,1.75,4.78c0,0,2.44-.83,3.4-3.13,0,0,.37-3.72-2.67-5.33-3.03-1.61-7.03-4.23-7.36-4.69s.14-4.69-.92-5.24-3.03-1.98-3.59-2.85,6.85-19.26,6.9-19.49-.83-5.24-.83-5.24l-4.23,1.2Z"/>
      <g>
        <g>
          <polygon class="cls-36" points="177.74 155.72 188.34 155.67 222.88 223.13 204.13 208.1 177.74 155.72"/>
          <g class="cls-12">
            <polyline class="cls-24" points="175.84 152.59 180.77 150.5 212.09 222.05"/>
          </g>
          <polygon class="cls-9" points="177.74 155.72 188.34 155.67 222.88 223.13 204.13 208.1 177.74 155.72"/>
        </g>
        <path class="cls-5" d="M152.57,258.81c22.75-17.44,39.17-66.85,39.17-66.85.28.47,14.19,23.18,14.19,23.18,0,0-.16,13.46-8.25,32.05v28.59h-8.28v-12.85c-1.2,1.93-2.48,3.89-3.86,5.86v11.4h-2.76v-7.6c-3.77,5.02-8.14,10.13-13.24,15.23l-16.98-29Z"/>
      </g>
      <path class="cls-3" d="M153.61,285.35s7.36,18.8,9.01,21.61,6.94,6.34,8.09,6.53,7.31.09,7.91,2.02c.6,1.93,4.37,5.52,5.89,5.52s6.62,2.85,7.63,2.76,4.83,4.32,2.3,6.99c0,0-1.33-4.69-3.59-3.77,0,0-3.54,1.06-5.06,0-1.52-1.06-3.86-2.48-4.87-2.94s-9.2-.46-9.2-.46l-1.38-.28s.64,2.57.46,4.69-1.56,3.17-1.66,3.59.83,1.43-.37,2.39c0,0-.28-.87-1.29-2.02,0,0-.87-3.68-1.75-4.51s-3.86-3.95-4.87-4.87c-1.01-.92-1.56-1.43-3.68-1.01s-4.05.18-4.51.83-1.29,2.71-2.11,2.57-3.72-.46-4.51.37-3.13,3.54-1.75,4.78c0,0-2.44-.83-3.4-3.13,0,0-.37-3.72,2.67-5.33s7.03-4.23,7.36-4.69-.14-4.69.92-5.24,3.03-1.98,3.59-2.85-6.85-19.26-6.9-19.49.83-5.24.83-5.24l4.23,1.2Z"/>
      <path class="cls-1" d="M102.76,280.74c-.06-.09-.12-.18-.18-.28-.52-.78-.77-1.54-.83-2.27-.42-1.34-.38-2.82.41-4.05.21-.36.45-.7.71-1.02-.26-.81-.82-1.64-1.18-2.39-.97-2-1.9-3.96-2.62-6.05-5.53-3.27-13.4.89-19.03,1.62-.94.12-1.75-.06-2.43-.44-.35.67-.67,1.36-.95,2.08-3.29,8.79.61,18.36,8.69,21.39,6.98,2.61,14.79-.52,18.92-7.08-.59-.4-1.12-.91-1.52-1.51Z"/>
      <path class="cls-1" d="M136.02,280.74c.06-.09.12-.18.18-.28.52-.78.77-1.54.83-2.27.42-1.34.38-2.82-.41-4.05-.21-.36-.45-.7-.71-1.02.26-.81.82-1.64,1.18-2.39.97-2,1.9-3.96,2.62-6.05,5.53-3.27,13.4.89,19.03,1.62.94.12,1.75-.06,2.43-.44.35.67.67,1.36.95,2.08,3.29,8.79-.61,18.36-8.69,21.39-6.98,2.61-14.79-.52-18.92-7.08.59-.4,1.12-.91,1.52-1.51Z"/>
      <g>
        <path class="cls-19" d="M136.82,138.71c15.62.86,33.62-1.14,45.62,12.86,7,9,6,20,8,31,1,10,1,21-3,31-7,21-15,42-31,59-6,6-14,10-23,12-5,1-8.94-1.62-12.74-1.22-4.13.44-7.13,0-7.13,0-3.74-.78-7.74,2.22-12.74,1.22-9-2-17-6-23-12-16-17-24-38-31-59-4-10-4-21-3-31,2-11,1-22,8-31,12-14,30-12,45.62-12.86h39.37Z"/>
        <g class="cls-13">
          <ellipse class="cls-38" cx="116.92" cy="166" rx="73.92" ry="74.48"/>
        </g>
        <path class="cls-9" d="M136.82,138.71c15.62.86,33.62-1.14,45.62,12.86,7,9,6,20,8,31,1,10,1,21-3,31-7,21-15,42-31,59-6,6-14,10-23,12-5,1-8.94-1.62-12.74-1.22-4.13.44-7.13,0-7.13,0-3.74-.78-7.74,2.22-12.74,1.22-9-2-17-6-23-12-16-17-24-38-31-59-4-10-4-21-3-31,2-11,1-22,8-31,12-14,30-12,45.62-12.86h39.37Z"/>
      </g>
      <polygon class="cls-27" points="150.51 167.53 149.5 163.89 117.13 168.08 84.76 163.89 83.75 167.53 76.68 202.9 100.53 231.6 116.36 231.6 117.91 231.6 133.74 231.6 157.59 202.9 150.51 167.53"/>
      <path class="cls-35" d="M170.3,254.96c-9.87-10.08-19.38-20.51-28.51-31.26,9.87,10.08,19.38,20.51,28.51,31.26h0Z"/>
      <path class="cls-35" d="M95.3,223.69c-9.13,10.76-18.63,21.19-28.51,31.26,9.12-10.76,18.64-21.19,28.51-31.26h0Z"/>
      <rect class="cls-27" x="89.5" y="247.47" width="3.57" height="19.31" rx="1.27" ry="1.27" transform="translate(-155.08 139.86) rotate(-45)"/>
      <rect class="cls-27" x="136.77" y="247.47" width="3.57" height="19.31" rx="1.27" ry="1.27" transform="translate(54.7 536.91) rotate(-135)"/>
    </g>
  </g>
  <g id="Head">
    <g>
      <path class="cls-27" d="M180.18,158.87c10.39-3.19,14.72-15.95,14.32-26.82l-1.03-27.9c0-1.5-.14-3.16-.38-4.93l-.12-1.55c-2.2-13.93-6.98-26.58-11.3-35.87-7.16-15.43-20.52-27.23-36.88-31.9-20.27-5.78-40.05-3.36-40.05-3.36,0,0-6.25-.09-11.95-2.57-4.98-2.17-26.67-17.54-32.07-21.38-.37-.26-.85.11-.69.53l9.4,24.71-15.13-2.96c-.36-.07-.64.3-.48.62l9.6,20.93,3.44-3.15c-7.26,6.54-12.37,14.46-16.28,23.63-.45,1.28-.87,2.55-1.29,3.81-3.05,6.04-6.01,16.85-9.01,35.54l-.54,27.82c-.02,5.14.4,11.2,2.93,15.68,3.75,6.63,15.57,12.93,24.58,14.2,3.4.48,6.74,1.25,10.06,2.11,7.04,1.83,18.17,4.51,27.37,5.78,4.37.6,8.76.25,13.14-.24,18.82-2.11,48.87-8.61,62.38-12.76Z"/>
      <g class="cls-29">
        <g>
          <path class="cls-19" d="M191.45,91.35c-.05-.33-.09-.66-.13-.99-3.55-27.69-20.77-44.34-42.49-44.34-12.94,0-24.42,7.03-31.66,17.88-7.25-10.86-18.73-17.88-31.66-17.88-21.72,0-38.94,16.65-42.49,44.34-.04.33-.08.66-.13.99-.25,1.58-1.58,12.3-1.75,21.87-.13,7.22,8.57,32.09,27.13,46.35,15.81,12.15,41.61,16.69,48.88,17.76h0s.02,0,.03,0c0,0,.02,0,.03,0h0c7.28-1.09,33.07-5.62,48.88-17.77,18.56-14.25,27.26-39.13,27.13-46.35-.18-9.57-1.5-20.28-1.75-21.87Z"/>
          <g class="cls-18">
            <ellipse class="cls-16" cx="169.3" cy="111.68" rx="60.21" ry="66.13" transform="translate(-5.9 213.86) rotate(-63.66)"/>
            <ellipse class="cls-25" cx="65.02" cy="111.68" rx="66.13" ry="60.21" transform="translate(-42.8 40.44) rotate(-26.34)"/>
          </g>
        </g>
        <path class="cls-23" d="M25.32,93.17c3.03,1.66,36.14,22.34,40.83,29.24,4.69,6.9,17.52,33.22,25.59,43.23s47.79,5.32,50,5.32,9.66-34.85,16.55-38.44c6.9-3.59,37.17-26.95,37.52-39.72.35-12.77,11.03-4.05,11.03-4.05,0,0,5.24,31.72,6.07,35.86.83,4.14-8.28,31.45-8.28,31.45l-60.69,31.45-41.93,7.72-62.9-8.28-19.31-46.34,5.52-47.45Z"/>
      </g>
      <path class="cls-9" d="M180.18,158.87c10.39-3.19,14.72-15.95,14.32-26.82l-1.03-27.9c0-1.5-.14-3.16-.38-4.93l-.12-1.55c-2.2-13.93-6.98-26.58-11.3-35.87-7.16-15.43-20.52-27.23-36.88-31.9-20.27-5.78-40.05-3.36-40.05-3.36,0,0-6.25-.09-11.95-2.57-4.98-2.17-26.67-17.54-32.07-21.38-.37-.26-.85.11-.69.53l9.4,24.71-15.13-2.96c-.36-.07-.64.3-.48.62l9.6,20.93,3.44-3.15c-7.26,6.54-12.37,14.46-16.28,23.63-.45,1.28-.87,2.55-1.29,3.81-3.05,6.04-6.01,16.85-9.01,35.54l-.54,27.82c-.02,5.14.4,11.2,2.93,15.68,3.75,6.63,15.57,12.93,24.58,14.2,3.4.48,6.74,1.25,10.06,2.11,7.04,1.83,18.17,4.51,27.37,5.78,4.37.6,8.76.25,13.14-.24,18.82-2.11,48.87-8.61,62.38-12.76Z"/>
    </g>
  </g>
  <g id="Beak">
    <g>
      <path class="cls-6" d="M101.76,131.6c.14.69,8.92,13.32,11.64,15.09,2.59,1.69,6.93,1,8.31.21,2.29-1.32,10.97-15.62,10.97-15.62l-19.33-3.68-11.59,4Z"/>
      <polygon class="cls-17" points="102.71 131.59 116.16 131.52 130.75 131.35 117.69 139.53 116.31 139.67 102.71 131.59"/>
      <path class="cls-2" d="M115.49,139.13c.96.54,2.15.53,3.09-.05l10.11-6.49,1.47-.84-7.93-.07-7.03.21-12.48-.31,12.77,7.54Z"/>
      <g>
        <polygon class="cls-30" points="101.44 130.94 116.13 120.06 132.04 130.91 116.54 131.8 101.44 130.94"/>
        <g class="cls-20">
          <path class="cls-34" d="M132.35,129.22l-15.82-5.7v14.07l-3.31,1.56-14.25-6.16.37-4.32,4.41-3.77,8.37-4.32s4.83-1.98,5.24-2.21,4.55-1.61,5.89-1.01,10.39,9.01,10.39,9.01l-1.29,2.85Z"/>
        </g>
        <polygon class="cls-2" points="101.44 130.94 116.13 120.06 132.04 130.91 116.54 131.8 101.44 130.94"/>
      </g>
      <polygon points="132.04 130.91 136.31 129.88 131.62 132.5 132.04 130.91"/>
      <polygon points="102.42 131.41 97.96 130.35 102.85 133.04 102.42 131.41"/>
    </g>
  </g>
  <g id="Eyes">
    <g>
      <path class="cls-27" d="M133.98,102.74c-6.85,27.58,9.86,29.11,21.77,29.62,13.7.59,26.34-8.06,27.84-23.11,1.44-14.44-4.19-29.18-17.87-30.12-12.95-.89-28.48,10.48-31.74,23.61Z"/>
      <g>
        <path class="cls-27" d="M100.21,102.74c6.85,27.58-9.86,29.11-21.77,29.62-13.7.59-26.34-8.06-27.84-23.11-1.44-14.44,4.19-29.18,17.87-30.12,12.95-.89,28.48,10.48,31.74,23.61Z"/>
        <g>
          <g>
            <g>
              <g>
                <path class="cls-33" d="M99.46,102.15c6.57,26.55-9.38,28-20.76,28.48-13.09.56-25.17-7.79-26.62-22.28-1.39-13.9,3.96-28.08,17.03-28.97,12.37-.84,27.22,10.12,30.34,22.76Z"/>
                <g class="cls-22">
                  <path class="cls-21" d="M105.23,118.12c-9.8-13.69-27.04-20.34-43.48-16.52-4.8,1.12-9.41,3.1-13.52,5.82-1.6,1.06-.1,3.66,1.51,2.59,6.73-4.44,14.7-6.73,22.77-6.51,7.59.21,14.95,2.8,21.13,7.18,3.46,2.45,6.53,5.51,9,8.96,1.11,1.56,3.72.06,2.59-1.51h0Z"/>
                  <path class="cls-21" d="M102.35,116.53c-12.26-10.04-27.8-19.21-44.16-14.18-4.18,1.29-8.04,3.46-11.23,6.46-1.41,1.33.71,3.44,2.12,2.12,5.2-4.89,12.35-7.14,19.41-7,7.54.14,14.71,3.1,21.07,6.99,3.75,2.3,7.27,4.94,10.67,7.73,1.48,1.21,3.62-.9,2.12-2.12h0Z"/>
                </g>
                <path class="cls-9" d="M99.46,102.15c6.57,26.55-9.38,28-20.76,28.48-13.09.56-25.17-7.79-26.62-22.28-1.39-13.9,3.96-28.08,17.03-28.97,12.37-.84,27.22,10.12,30.34,22.76Z"/>
              </g>
              <path class="cls-4" d="M51.94,104.62c.06.17.09-.93.14-1.1,4.27-15.1,16.48-15.73,16.48-15.73,22.82-2.63,29.79,15.57,31.75,22.54.09.33.59.25.56-.09-.3-4.07-1.42-11.58-5.48-18.28-5.6-9.25-16.3-15.59-29.68-12.21-9.62,2.43-14.15,12.7-14.75,17.78-.23,1.95.03,3.93.71,5.78l.27,1.32Z"/>
            </g>
            <g>
              <g>
                <path class="cls-33" d="M134.66,102.15c-6.57,26.55,9.38,28,20.76,28.48,13.09.56,25.17-7.79,26.62-22.28,1.39-13.9-3.96-28.08-17.03-28.97-12.37-.84-27.22,10.12-30.34,22.76Z"/>
                <g class="cls-32">
                  <path class="cls-21" d="M131.48,119.63c9.03-12.62,25.2-18.69,40.3-15.1,4.5,1.07,8.74,2.92,12.6,5.47,1.62,1.07,3.12-1.53,1.51-2.59-14.33-9.45-33.52-9.11-47.4,1.01-3.71,2.71-6.93,5.96-9.6,9.7-1.13,1.57,1.48,3.07,2.59,1.51h0Z"/>
                  <path class="cls-21" d="M131.76,116.53c12.26-10.04,27.8-19.21,44.16-14.18,4.18,1.29,8.04,3.46,11.23,6.46,1.41,1.33-.71,3.44-2.12,2.12-5.2-4.89-12.35-7.14-19.41-7-7.54.14-14.71,3.1-21.07,6.99-3.75,2.3-7.27,4.94-10.67,7.73-1.48,1.21-3.62-.9-2.12-2.12h0Z"/>
                </g>
                <path class="cls-9" d="M134.66,102.15c-6.57,26.55,9.38,28,20.76,28.48,13.09.56,25.17-7.79,26.62-22.28,1.39-13.9-3.96-28.08-17.03-28.97-12.37-.84-27.22,10.12-30.34,22.76Z"/>
              </g>
              <path class="cls-4" d="M182.17,104.62c-.06.17-.09-.93-.14-1.1-4.27-15.1-16.48-15.73-16.48-15.73-22.82-2.63-29.79,15.57-31.75,22.54-.09.33-.59.25-.56-.09.3-4.07,1.42-11.58,5.48-18.28,5.6-9.25,16.3-15.59,29.68-12.21,9.62,2.43,14.15,12.7,14.75,17.78.23,1.95-.03,3.93-.71,5.78l-.27,1.32Z"/>
            </g>
          </g>
          <g>
            <path class="cls-8" d="M168.45,127.71v9.65"/>
            <path class="cls-8" d="M169.54,139.8c-.65.46-1.58.35-2.09-.23s-.39-1.43.25-1.89,1.58-.35,2.09.23.39,1.43-.25,1.89Z"/>
          </g>
          <g>
            <path class="cls-8" d="M64.45,127.71v9.65"/>
            <path class="cls-8" d="M65.54,139.8c-.65.46-1.58.35-2.09-.23s-.39-1.43.25-1.89,1.58-.35,2.09.23.39,1.43-.25,1.89Z"/>
          </g>
        </g>
      </g>
    </g>
  </g>
</svg>